<svg xmlns="http://www.w3.org/2000/svg" xmlns:xlink="http://www.w3.org/1999/xlink" width="200" zoomAndPan="magnify" viewBox="0 0 150 60" height="80" preserveAspectRatio="xMidYMid meet" version="1.0"><defs><g/><clipPath id="2829a7e9c0"><path d="M 3 2 L 41 2 L 41 58 L 3 58 Z M 3 2 " clip-rule="nonzero"/></clipPath><clipPath id="ee420b25c4"><path d="M 30.875 0 L 43.496094 7.285156 L 13.050781 60.023438 L 0.433594 52.738281 Z M 30.875 0 " clip-rule="nonzero"/></clipPath><clipPath id="1eb9983a22"><path d="M 37.183594 3.640625 C 38.859375 4.609375 40.078125 6.199219 40.578125 8.066406 C 41.082031 9.933594 40.820312 11.921875 39.851562 13.59375 L 16.714844 53.679688 C 15.746094 55.351562 14.15625 56.574219 12.289062 57.074219 C 10.425781 57.574219 8.4375 57.3125 6.761719 56.34375 C 5.089844 55.378906 3.867188 53.789062 3.367188 51.921875 C 2.867188 50.054688 3.128906 48.066406 4.09375 46.394531 L 27.234375 6.308594 C 28.199219 4.636719 29.792969 3.414062 31.65625 2.914062 C 33.523438 2.414062 35.511719 2.675781 37.183594 3.640625 Z M 37.183594 3.640625 " clip-rule="nonzero"/></clipPath><clipPath id="18e76d7982"><path d="M 0 0.398438 L 38 0.398438 L 38 55.601562 L 0 55.601562 Z M 0 0.398438 " clip-rule="nonzero"/></clipPath><clipPath id="d8e87d927d"><path d="M 27.875 -2 L 40.496094 5.285156 L 10.050781 58.023438 L -2.566406 50.738281 Z M 27.875 -2 " clip-rule="nonzero"/></clipPath><clipPath id="561f3e71b5"><path d="M 34.183594 1.640625 C 35.859375 2.609375 37.078125 4.199219 37.578125 6.066406 C 38.082031 7.933594 37.820312 9.921875 36.851562 11.59375 L 13.714844 51.679688 C 12.746094 53.351562 11.15625 54.574219 9.289062 55.074219 C 7.425781 55.574219 5.4375 55.3125 3.761719 54.34375 C 2.089844 53.378906 0.867188 51.789062 0.367188 49.921875 C -0.132812 48.054688 0.128906 46.066406 1.09375 44.394531 L 24.234375 4.308594 C 25.199219 2.636719 26.792969 1.414062 28.65625 0.914062 C 30.523438 0.414062 32.511719 0.675781 34.183594 1.640625 Z M 34.183594 1.640625 " clip-rule="nonzero"/></clipPath><clipPath id="30aabf4083"><rect x="0" width="38" y="0" height="56"/></clipPath><clipPath id="18eaa2861d"><path d="M 26 2 L 65 2 L 65 58 L 26 58 Z M 26 2 " clip-rule="nonzero"/></clipPath><clipPath id="23014753e6"><path d="M 23.75 7.273438 L 36.371094 0 L 66.777344 52.761719 L 54.152344 60.035156 Z M 23.75 7.273438 " clip-rule="nonzero"/></clipPath><clipPath id="a4da53992a"><path d="M 30.0625 3.636719 C 31.734375 2.671875 33.722656 2.410156 35.589844 2.914062 C 37.453125 3.414062 39.046875 4.636719 40.007812 6.3125 L 63.117188 46.414062 C 64.082031 48.085938 64.34375 50.074219 63.84375 51.941406 C 63.339844 53.808594 62.117188 55.398438 60.445312 56.363281 C 58.769531 57.328125 56.78125 57.585938 54.914062 57.085938 C 53.050781 56.582031 51.460938 55.363281 50.496094 53.6875 L 27.386719 13.585938 C 26.421875 11.910156 26.160156 9.921875 26.664062 8.058594 C 27.164062 6.191406 28.386719 4.601562 30.0625 3.636719 Z M 30.0625 3.636719 " clip-rule="nonzero"/></clipPath><clipPath id="ecc7bdd6c8"><path d="M 0.078125 0.398438 L 38.480469 0.398438 L 38.480469 55.601562 L 0.078125 55.601562 Z M 0.078125 0.398438 " clip-rule="nonzero"/></clipPath><clipPath id="5aeb22e876"><path d="M -2.25 5.273438 L 10.371094 -2 L 40.777344 50.761719 L 28.152344 58.035156 Z M -2.25 5.273438 " clip-rule="nonzero"/></clipPath><clipPath id="c8b3519894"><path d="M 4.0625 1.636719 C 5.734375 0.671875 7.722656 0.410156 9.589844 0.914062 C 11.453125 1.414062 13.046875 2.636719 14.007812 4.3125 L 37.117188 44.414062 C 38.082031 46.085938 38.34375 48.074219 37.84375 49.941406 C 37.339844 51.808594 36.117188 53.398438 34.445312 54.363281 C 32.769531 55.328125 30.78125 55.585938 28.914062 55.085938 C 27.050781 54.582031 25.460938 53.363281 24.496094 51.6875 L 1.386719 11.585938 C 0.421875 9.910156 0.160156 7.921875 0.664062 6.058594 C 1.164062 4.191406 2.386719 2.601562 4.0625 1.636719 Z M 4.0625 1.636719 " clip-rule="nonzero"/></clipPath><clipPath id="2ab8c8f325"><rect x="0" width="39" y="0" height="56"/></clipPath><clipPath id="535b7a30ec"><path d="M 71 9 L 130.960938 9 L 130.960938 51 L 71 51 Z M 71 9 " clip-rule="nonzero"/></clipPath><clipPath id="4928b1d6cf"><path d="M 0.199219 5 L 13 5 L 13 18 L 0.199219 18 Z M 0.199219 5 " clip-rule="nonzero"/></clipPath><clipPath id="a1c0a6b177"><path d="M 47 6 L 59.960938 6 L 59.960938 18 L 47 18 Z M 47 6 " clip-rule="nonzero"/></clipPath><clipPath id="50d57fc3f7"><path d="M 0.199219 24 L 9 24 L 9 36 L 0.199219 36 Z M 0.199219 24 " clip-rule="nonzero"/></clipPath><clipPath id="0786f2ff84"><rect x="0" width="60" y="0" height="42"/></clipPath><clipPath id="8861de96e7"><rect x="0" width="131" y="0" height="60"/></clipPath></defs><g transform="matrix(1, 0, 0, 1, 8, -0.000000000000001479)"><g clip-path="url(#8861de96e7)"><g clip-path="url(#2829a7e9c0)"><g clip-path="url(#ee420b25c4)"><g clip-path="url(#1eb9983a22)"><g transform="matrix(1, 0, 0, 1, 3, 2)"><g clip-path="url(#30aabf4083)"><g clip-path="url(#18e76d7982)"><g clip-path="url(#d8e87d927d)"><g clip-path="url(#561f3e71b5)"><path fill="#d2886a" d="M 27.875 -2 L 40.496094 5.285156 L 10.078125 57.972656 L -2.539062 50.691406 Z M 27.875 -2 " fill-opacity="1" fill-rule="nonzero"/></g></g></g></g></g></g></g></g><g clip-path="url(#18eaa2861d)"><g clip-path="url(#23014753e6)"><g clip-path="url(#a4da53992a)"><g transform="matrix(1, 0, 0, 1, 26, 2)"><g clip-path="url(#2ab8c8f325)"><g clip-path="url(#ecc7bdd6c8)"><g clip-path="url(#5aeb22e876)"><g clip-path="url(#c8b3519894)"><path fill="#000000" d="M -2.25 5.273438 L 10.371094 -2 L 40.75 50.710938 L 28.125 57.984375 Z M -2.25 5.273438 " fill-opacity="1" fill-rule="nonzero"/></g></g></g></g></g></g></g></g><g clip-path="url(#535b7a30ec)"><g transform="matrix(1, 0, 0, 1, 71, 9)"><g clip-path="url(#0786f2ff84)"><g clip-path="url(#4928b1d6cf)"><g fill="#000000" fill-opacity="1"><g transform="translate(0.206259, 17.855996)"><g><path d="M 0.546875 -5.90625 C 0.546875 -7.0625 0.796875 -8.09375 1.296875 -9 C 1.804688 -9.914062 2.507812 -10.628906 3.40625 -11.140625 C 4.3125 -11.648438 5.332031 -11.90625 6.46875 -11.90625 C 7.863281 -11.90625 9.054688 -11.535156 10.046875 -10.796875 C 11.046875 -10.054688 11.710938 -9.050781 12.046875 -7.78125 L 8.90625 -7.78125 C 8.664062 -8.269531 8.332031 -8.640625 7.90625 -8.890625 C 7.476562 -9.148438 6.988281 -9.28125 6.4375 -9.28125 C 5.550781 -9.28125 4.832031 -8.972656 4.28125 -8.359375 C 3.738281 -7.742188 3.46875 -6.925781 3.46875 -5.90625 C 3.46875 -4.875 3.738281 -4.050781 4.28125 -3.4375 C 4.832031 -2.820312 5.550781 -2.515625 6.4375 -2.515625 C 6.988281 -2.515625 7.476562 -2.640625 7.90625 -2.890625 C 8.332031 -3.148438 8.664062 -3.53125 8.90625 -4.03125 L 12.046875 -4.03125 C 11.710938 -2.75 11.046875 -1.742188 10.046875 -1.015625 C 9.054688 -0.285156 7.863281 0.078125 6.46875 0.078125 C 5.332031 0.078125 4.3125 -0.171875 3.40625 -0.671875 C 2.507812 -1.179688 1.804688 -1.890625 1.296875 -2.796875 C 0.796875 -3.703125 0.546875 -4.738281 0.546875 -5.90625 Z M 0.546875 -5.90625 "/></g></g></g></g><g fill="#000000" fill-opacity="1"><g transform="translate(12.982229, 17.855996)"><g><path d="M 11.234375 -11.765625 L 11.234375 0 L 8.359375 0 L 8.359375 -4.84375 L 3.90625 -4.84375 L 3.90625 0 L 1.046875 0 L 1.046875 -11.765625 L 3.90625 -11.765625 L 3.90625 -7.15625 L 8.359375 -7.15625 L 8.359375 -11.765625 Z M 11.234375 -11.765625 "/></g></g></g><g fill="#000000" fill-opacity="1"><g transform="translate(25.238438, 17.855996)"><g><path d="M 8.359375 -2.078125 L 3.96875 -2.078125 L 3.265625 0 L 0.265625 0 L 4.53125 -11.765625 L 7.84375 -11.765625 L 12.109375 0 L 9.0625 0 Z M 7.625 -4.296875 L 6.171875 -8.59375 L 4.734375 -4.296875 Z M 7.625 -4.296875 "/></g></g></g><g fill="#000000" fill-opacity="1"><g transform="translate(37.595248, 17.855996)"><g><path d="M 9.5 -11.765625 L 9.5 -9.46875 L 6.390625 -9.46875 L 6.390625 0 L 3.515625 0 L 3.515625 -9.46875 L 0.40625 -9.46875 L 0.40625 -11.765625 Z M 9.5 -11.765625 "/></g></g></g><g clip-path="url(#a1c0a6b177)"><g fill="#000000" fill-opacity="1"><g transform="translate(47.50417, 17.855996)"><g><path d="M 8.359375 -2.078125 L 3.96875 -2.078125 L 3.265625 0 L 0.265625 0 L 4.53125 -11.765625 L 7.84375 -11.765625 L 12.109375 0 L 9.0625 0 Z M 7.625 -4.296875 L 6.171875 -8.59375 L 4.734375 -4.296875 Z M 7.625 -4.296875 "/></g></g></g></g><g clip-path="url(#50d57fc3f7)"><g fill="#d2886a" fill-opacity="1"><g transform="translate(0.206259, 35.776826)"><g><path d="M 8.421875 -11.765625 L 8.421875 -3.75 C 8.421875 -2.507812 8.070312 -1.550781 7.375 -0.875 C 6.675781 -0.207031 5.734375 0.125 4.546875 0.125 C 3.304688 0.125 2.3125 -0.226562 1.5625 -0.9375 C 0.8125 -1.644531 0.4375 -2.644531 0.4375 -3.9375 L 3.28125 -3.9375 C 3.28125 -3.445312 3.378906 -3.078125 3.578125 -2.828125 C 3.785156 -2.578125 4.078125 -2.453125 4.453125 -2.453125 C 4.804688 -2.453125 5.078125 -2.5625 5.265625 -2.78125 C 5.453125 -3.007812 5.546875 -3.332031 5.546875 -3.75 L 5.546875 -11.765625 Z M 8.421875 -11.765625 "/></g></g></g></g><g fill="#d2886a" fill-opacity="1"><g transform="translate(9.897217, 35.776826)"><g><path d="M 8.359375 -2.078125 L 3.96875 -2.078125 L 3.265625 0 L 0.265625 0 L 4.53125 -11.765625 L 7.84375 -11.765625 L 12.109375 0 L 9.0625 0 Z M 7.625 -4.296875 L 6.171875 -8.59375 L 4.734375 -4.296875 Z M 7.625 -4.296875 "/></g></g></g><g fill="#d2886a" fill-opacity="1"><g transform="translate(22.254027, 35.776826)"><g><path d="M 7.859375 0 L 3.90625 -5.203125 L 3.90625 0 L 1.046875 0 L 1.046875 -11.765625 L 3.90625 -11.765625 L 3.90625 -6.609375 L 7.828125 -11.765625 L 11.203125 -11.765625 L 6.640625 -6 L 11.359375 0 Z M 7.859375 0 "/></g></g></g><g fill="#d2886a" fill-opacity="1"><g transform="translate(33.940183, 35.776826)"><g><path d="M 3.859375 -11.765625 L 3.859375 -4.734375 C 3.859375 -4.023438 4.03125 -3.476562 4.375 -3.09375 C 4.71875 -2.71875 5.226562 -2.53125 5.90625 -2.53125 C 6.570312 -2.53125 7.082031 -2.71875 7.4375 -3.09375 C 7.800781 -3.476562 7.984375 -4.023438 7.984375 -4.734375 L 7.984375 -11.765625 L 10.84375 -11.765625 L 10.84375 -4.75 C 10.84375 -3.695312 10.617188 -2.804688 10.171875 -2.078125 C 9.722656 -1.347656 9.125 -0.796875 8.375 -0.421875 C 7.625 -0.0546875 6.78125 0.125 5.84375 0.125 C 4.914062 0.125 4.085938 -0.0546875 3.359375 -0.421875 C 2.628906 -0.785156 2.050781 -1.332031 1.625 -2.0625 C 1.195312 -2.800781 0.984375 -3.695312 0.984375 -4.75 L 0.984375 -11.765625 Z M 3.859375 -11.765625 "/></g></g></g><g fill="#d2886a" fill-opacity="1"><g transform="translate(45.760469, 35.776826)"><g><path d="M 8.171875 -6.03125 C 8.847656 -5.882812 9.390625 -5.546875 9.796875 -5.015625 C 10.210938 -4.484375 10.421875 -3.878906 10.421875 -3.203125 C 10.421875 -2.222656 10.078125 -1.441406 9.390625 -0.859375 C 8.703125 -0.285156 7.742188 0 6.515625 0 L 1.046875 0 L 1.046875 -11.765625 L 6.34375 -11.765625 C 7.53125 -11.765625 8.460938 -11.488281 9.140625 -10.9375 C 9.816406 -10.394531 10.15625 -9.65625 10.15625 -8.71875 C 10.15625 -8.019531 9.972656 -7.441406 9.609375 -6.984375 C 9.242188 -6.523438 8.765625 -6.207031 8.171875 -6.03125 Z M 3.90625 -7.015625 L 5.78125 -7.015625 C 6.25 -7.015625 6.609375 -7.113281 6.859375 -7.3125 C 7.117188 -7.519531 7.25 -7.828125 7.25 -8.234375 C 7.25 -8.628906 7.117188 -8.929688 6.859375 -9.140625 C 6.609375 -9.359375 6.25 -9.46875 5.78125 -9.46875 L 3.90625 -9.46875 Z M 6.015625 -2.3125 C 6.492188 -2.3125 6.863281 -2.421875 7.125 -2.640625 C 7.394531 -2.859375 7.53125 -3.175781 7.53125 -3.59375 C 7.53125 -4 7.390625 -4.316406 7.109375 -4.546875 C 6.835938 -4.785156 6.460938 -4.90625 5.984375 -4.90625 L 3.90625 -4.90625 L 3.90625 -2.3125 Z M 6.015625 -2.3125 "/></g></g></g></g></g></g></g></g></svg>